<svg xmlns="http://www.w3.org/2000/svg" width="186" height="252" viewBox="0 0 186 252">
<!-- SVG created with Arrow, by QuiverAI (https://quiver.ai) -->
  <path d="m179.7 177.9c-1.93-4.61-4.4-7.7-6.35-9.41 0.82-10.67-3.22-20.37-8.67-32.37-5.88-12.87-10.61-26.9-14.23-50.42-3.41-22.16-5.3-34.75-13.78-50.71-10.65-21-29.63-29.97-46-29.37-5.8 0-7.54 1.78-14.62 2.01-9.34 0.32-19.23 5.26-26.05 11.18-15.12 13.47-24.77 29.58-24.61 53.11 0 8.21 2.48 15.32 5.78 17.58 1.45 7.69 2.54 20.66-0.09 35.36-2.32 12.5-6.17 21.91-6.8 33.41-0.39 7.05 0.63 14.55 2.45 19.68l-0.25 8.87c-3.3-7.69-10.45-12.46-16.33-18.53l-1.28 0.44-0.16 1.29-3.47 0.52-4.05-1.81-1.23 1.89 16.95 42.55-12.87 38.8h1.72l1.36-3.5 3.97-0.6c4.58 0 7.88 0.76 10.79 2.21l-0.08 1.93h5.29l0.16-24.81c0-2.04 0.47-2.96 1.9-1.96 1.53 1.08 3.62 4.98 3.86 11.97l-1.93 4.06 1.03 1 5.21-6.53-3.14-9.82-12.14-25.79 0.67-2.91 3.39 1.71 1.82-0.16c3.48 0.92 5.87-0.71 7.96-1.31l53.76-12.17 22.51 66.64h1.93l-0.39-1.81 23.14-0.08 0.16-2.41c4.12-2.18 10.65-1.86 17.65-1.86 10.23 0 21.33 1.94 25.18 6.16h5.45c0.82-20.6 2.44-54.55-5.57-74.03zm-11.8-29.98c3.3 7.1 4.41 12.31 4.25 18.23-7.39-12.97-14.31-33.73-18.36-54.02 3.38 11.8 8.35 24.15 14.11 35.79zm-140.3-67.87c1.04 3.74 2.07 6.23 2.85 7.43-1.73-1.44-2.69-4.25-2.85-7.43zm-1.54 93.87c-0.4-8.83 1.34-17.78 4.04-28.53 3.77-14.42 4.24-24.75 3.57-34.32 1.61 15.13-1.01 28.75-5.48 47.04-1.46 6.08-2.05 10.78-2.13 15.81zm112.9-21.06 9.89 4.28-11.82-1.8 1.93-2.48zm-18.28-77.89c2.55-2.93 7.6-2.93 9.93 1.12 2.62 4.68 2.23 12.69-1.82 18.62-4.12 5.92-6.82 7.16-10.12 6.84-1.74-0.16-1.66 2.1-2.77 5.52-2.82 9.13-9.02 16.1-17.81 23.72-6.91 5.93-12.04 8.34-18.08 8.02-4.04-0.24-5.9-2.29-9.94-4.78-8.24-5.05-15.32-10.34-19.44-21.62-2.55-6.89-3.98-12.57-5.43-15.14-1.53-2.93-3.15-8.13-4.18-11.14l1.27-1.15c2.4 0.24 3.59 0.16 5.44-0.75 1.61-0.76 4.6-0.68 7.3-0.36l1.54-0.6-2.33-1.45c-3.06-3.25-4.27-8.95-4.86-15.55-0.59 6.37 0.31 11.22 1.95 15.71l-2.89-0.6c-1.93-5.05-1.54-13.42 0.59-24.84-0.4 10.09 1.05 18.19 5.49 24.72 1.61 1.89 2.59 2.37 5.21 1.97l1.45-0.44-1.17-11.95c1.61 5.53 3.22 9.29 4.96 11.54l6.37-0.68c-3.47-5.21-5.8-10.98-6.84-18.99 1.35 7.26 4.05 12.94 8.63 16.26l2.8-1.16c-3.3-4.46-5.94-11.34-11.39-27.69 1.74 9.65 5.29 17.34 11.41 23.42l3.14 1.45 0.47 0.32c-2.82-0.84-4.98-4.23-8.61-11.92 5.13 7.69 7.68 11.44 9.53 12.7l8.56 0.32-2.4-18.23c7.24 12.26 12.92 16.85 20.24 19.79 2.89 1.16 4.35 2.6 5.8 4.78 2.16 3.33 3.69 0.48 4.65-2.26 0.95-2.76 1.7-4 3.35-5.52zm-40.24 74.76-0.08-0.08 0.08 0.08zm4.31-10.08c7.39-2.17 13.42-6.91 19.62-13.28 4.97-5.21 9.16-10.34 11.86-16.71-0.47 9.13 1.14 21.47 4.8 28.74 3.85 6.89 8.82 10.78 15.43 13.63-11.82 9.9-25.74 16.78-41.42 16.54-7.24-0.08-11.09-1.88-15.05-4.81l2.4-10.14 2.47-1.16 1.19 3.52c1.93-4.76 1.38-10.29-1.3-16.33zm52.95 18.09-11.5 7.35-3.56-0.32c4.49-2.32 9.7-5.94 13.47-8.51l1.59 1.48zm-60.16 9.63c5.21 3.67 9.14 4.95 16.61 4.95 8.64 0 16.49-2.04 23.65-4.39l4.57 1.16c-8.24 4.14-16.09 5.59-25.27 5.59-8.23 0-13.83-1.72-20.12-5.71l0.56-1.6zm-2.92 1.8 1.11 0.91-2.47 6.37h-1.19l2.55-7.28zm-3.39 10.8 1.84-0.32 0.31 1.08-2.39 0.32 0.24-1.08zm-42.43 17.05c5.21-5.84 12.98-9.9 32.83-13.14 4.5-0.76 8.05-1.44 11.71-2.03l0.81-1.64 8.24 0.4 1.19 2.35-3.38 0.16c-10.13 1.72-22.03 3.84-32.16 6.67-8.23 2.43-13.36 5-19.24 7.23zm-26.3-25.18 0.67-0.4 10.65 11.4c5.03 5.12 8.97 10.8 11.05 14.86l-0.47-0.16-21.9-25.7zm23.8 24.94c-1.54-5.68-5.67-11.61-12.2-18.14l-8.24-8.52 1.53-0.16 9.74 9.81c5.8 5.84 9.17 10.69 9.84 16.97l-0.67 0.04zm-1.35 26.45c-1.85-1.44-3.38-2.2-6.6-2.96l-0.67-3.15 0.47-0.92 11.5 26.03-1.19 0.92c0.18-5.46 0.34-17.07-3.51-19.92zm-12.82 7.74 1.45-3.89c3.22 0.76 5.43 2.21 7.99 4.01l0.16 4.13-9.6-4.25zm-2.17 7.28 9.78 5.53-6.75-3.53-3.03-2zm-2.01 7.52 1.11-2.57 8.23 4.95c-2.47-1.08-5.61-1.68-9.34-2.38zm27.09-48.63 9.61 22.85 1.11 4.69 1.27 9.05-4.74 2.76-8.31-22.28-7.92-15.68c2.74 0.84 5.97 0.4 8.98-1.39zm24.89 31.47c2.7 0.08 2.03 3.84-1.1 6.69l-10.59 6.09-0.47 2.93 16.18-6.55c4.39-1.44 6.72-0.6 6.64 2.08-0.08 1.62-1.19 2.78-2.72 3.79 3-0.32 4.19 1.48 3.56 3.75-0.68 2.25-3.9 3.41-6.73 4.62h-3.38l8.48-4.38c1.53-1 1.06-2.81-1.33-2.05l-17.69 6.37-12.14-1.89 7.91-8.67 9.35-5.61c3-2.05 4.19-3.85 2.45-4.69-1.66-0.76-11.72 3.63-14.19 5.01l-9.78 9.97-0.82-1.15 4.89-7.27c4.39-3.76 16.19-9.2 21.48-9.04zm75.67 19.54 1.45-5.13c6.82-1.8 10.68-1.96 19.08-1.63 9.53 0.4 16.92 0.8 28.02 3.65l-0.47 5.04c-6.43-3.85-12.88-4.29-20.95-4.52-9.53-0.24-19.05-0.32-27.13 2.59zm48.55-18.06c-6.42-1.8-11.88-3.05-19.35-2.65-8.24 0.48-15.22 1.64-23.87 3.25l5.6-10.66c8.23-2.05 16.8-3.77 24.27-3.77 5.05 0 8.9 0.6 13.47 1.88l-0.12 11.95zm-0.32-15.96c-5.21-1.28-9.16-1.76-14.62-1.08l-20.28 2.12 2.62-5.21-6.82 5.76-5.13 1.54 3-8.5c10.13-4.46 20.73-7.63 29.36-7.63 4.12 0 7.27 0.48 11.68 1.76l0.19 11.24zm-0.74-15.2c-5.53-1.15-8.59-1.15-14.04-0.31-8.64 1.35-17.11 3.47-24.58 6.8l5.21-9.9c7.47-4.06 16.58-7.8 24.05-7.8 3.22 0 5.38 0.32 7.85 1.24l1.51 9.97zm-3.39-14.73c-3.38-0.92-5.24-1.08-8.62-0.52-6.82 1.16-12.7 3.64-19.14 6.71l6.44-8.52c4.57-4.05 8.62-6.63 13.5-6.95 2.99-0.16 4.52 0.32 5.72 2.9l2.1 6.38zm-7.9-10.56c-4.8-0.16-8.75 2.41-13.96 7.25-5.46 5.2-8.83 9.89-12.88 13.34l-2.82-0.48-4.04-0.4-45.01-2.49-3.14-7.7-3.47-0.84-1.93-3.35 15.68 0.4 41.83 1.8c5.13 0 9.61 1.45 13.57 2.79 4.2-5.54 8.77-9.52 16.17-10.32zm-3.86-0.84c-5.88-4.75-11.76-6.65-18.66-7.32l-13.37-2.34 1.85-3.07 9.6 1.8c7.4 1.27 12.93 2.11 18.81 5.86 2.7 1.72 4.36 3.17 5.89 5.15l-4.12-0.08zm-31.23 61.25 1.86-6.89 5.27-4.49-7.13 11.38zm-0.08 3.52 1.11-4.04c8.24-3 16.8-4.08 25.9-4.48 6.82-0.32 12.7 0.84 20.17 2.8l-0.47 11.95c-7.92-2.93-15.83-3.69-25.35-3.69-7.92-0.16-14.35-0.32-21.36-2.54z" fill="#000"/>
  <path d="m123.2 75.52c-3.07 0.6-4.68 5.54-4.36 10.15 0.08 1.62 0.78 3.06 0.39 4.3-0.47 1.44-1.41 2.36-0.47 3.44 0.86 1 1.89-0.64 2.28-1.4 1.04-1.56 4.68-3.12 5.25-5.3 0.86-3.09-1.16-5.85-3.09-5.77-1.45 0.08-1.92 0.68-2.87 1.68 0.4-2.94 1.85-5.2 3.94-5.46 2.47-0.32 4.09 1.8 4.56 4.98 0.59-2.06-1.1-7.36-5.63-6.62z" fill="#000"/>
  <path d="m122.6 84.22c-1.93 0-2.4 1.89-1.54 3.59 0.85 1.72-0.39 2.56-0.86 3.64 1.19-0.48 3.4-2.2 3.97-3.76 0.67-1.8-0.08-3.47-1.57-3.47z" fill="#000"/>
  <path d="m44.73 96.9 1.53 0.48 0.57-1.24 2.16 0.48c2.72 0.56 5.92 0.16 8.47-0.76 1.45-0.48 2.56-0.08 2.56 0.84 0 0.68-1.37 0.76-2.13 1-0.08 1.96-1.35 2.64-3.97 2.64-2.7 0-4.56-0.68-5.83-2.32l-1.85 0.48-1.51-1.6z" fill="#000"/>
  <path d="m64.51 109.4c-0.76 2.35 0.1 4.51 3.01 5.35l1.11-1c-2.91-0.6-3.77-2.14-3.46-4.63l0.16-2.93-0.82 3.21z" fill="#000"/>
  <path d="m69.96 111.8 0.67 0.6 0.75 0.16 0.4-0.68-1.11-0.24-0.71 0.16z" fill="#000"/>
  <path d="m66.73 122.2c3.46 0.68 11.23-0.08 17.74-2.64l0.24-0.48-0.57-0.48c-4.5 2.56-10.03 3.32-16.93 2.92l-0.48 0.68z" fill="#000"/>
  <path d="m71.62 127 1.45 0.48c2.15 0.32 3.68-0.16 5.54-1l-0.76-0.4c-1.93 1-3.78 0.84-6.23 0.08v0.84z" fill="#000"/>
  <path d="m77.7 92.97 1.62-1.72c5.53 0 11.41-0.92 17.29-3.08l2.01-0.16-1.61 1.8c-1.93 1.36-3.55 2.2-5.56 2.96l1.27 0.24-3.06 2.05c-2.7 1.08-6.08 1.48-8.01-0.4l-1.53-1.25-2.42 0.24v-0.68z" fill="#000"/>
  <path d="m91.84 193 53.12 3.51-3.22 7.76-47.1-3.09-2.8-8.18z" fill="#000"/>
  <path d="m97.72 205.5 41.84 2.57-2.39 10.45-35.5-1.96-3.95-11.06z" fill="#000"/>
  <path d="m103.6 221.1 32.23 1.88-0.55 9.42-27.64-0.68-4.04-10.62z" fill="#000"/>
  <path d="m108.7 236.7 27.9 1-1.45 9.42-22.42 0.16-4.03-10.58z" fill="#000"/>
  <path d="m136.9 196.2-2.39 8.64 0.56 0.16 2.39-8.64-0.56-0.16z" fill="#000"/>
  <path d="m135.4 210.2-0.75 9.43h0.75l0.76-9.43h-0.76z" fill="#000"/>
</svg>