<?xml version="1.0" encoding="utf-8" ?><svg xmlns="http://www.w3.org/2000/svg" xmlns:xlink="http://www.w3.org/1999/xlink" width="1024" height="1024" viewBox="0 0 1024 1024"><path fill="#D0CDC5" d="M588.8 290.531L589.184 290.041C592.444 285.809 594.944 281.134 597.969 276.717C622.074 241.511 655.951 203.825 700.059 196.554C711.106 194.733 727.032 197.618 735.395 205.349C753.646 222.22 752.262 255.997 754.556 278.748C758.573 318.586 759.264 357.979 754.899 397.72C754.523 401.053 753.989 404.598 753.841 407.932C761.392 418.708 772.884 436.535 778.471 448.53C795.773 485.678 807.356 533.593 800.081 574.294C791.582 619.628 768.758 661.038 734.968 692.433C719.988 706.32 707.313 714.967 692.318 727.262C704.534 760.081 720.559 792.783 733.394 825.515C743.55 846.19 751.746 864.649 758.379 886.776C761.137 895.976 764.991 904.957 767.347 914.406C771.508 928.626 774.739 942.838 777.966 957.29C780.224 967.404 783.064 978.285 784.96 988.409C787.559 999.663 790.054 1012.47 791.135 1024L710.265 1024L310.291 1024L237.885 1024C238.34 1017.65 240.371 1008.01 241.553 1001.66C242.4 993.648 244.343 983.516 245.683 975.511C248.476 958.154 251.595 940.851 255.038 923.611C257.243 913.428 258.732 902.522 260.761 892.195C264.068 876.148 267.645 860.159 271.49 844.232C277.033 814.386 289.175 776.327 300.966 748.419C296.23 745.947 291.518 743.429 286.832 740.865C238.753 714.604 203.199 670.178 188.114 617.513C173.098 564.76 189.064 507.047 215.108 460.48C199.918 435.176 192.221 382.906 188.492 352.569C185.464 327.937 181.386 284.107 188.968 259.651C190.435 254.915 199.646 246.12 203.551 241.141C216.962 237.882 221.75 240.725 234.749 242.673C250.586 245.045 262.314 249.912 276.977 255.834C313.665 270.299 347.264 291.62 375.976 318.655C385.001 315.715 396.491 309.435 407.642 305.708C432.981 297.547 452.59 293.268 479.08 288.845C504.576 284.81 530.744 285.495 556.396 287.51C566.093 288.272 579.635 290.594 588.8 290.531Z"/><path fill="#13171B" d="M203.551 241.141C216.962 237.882 221.75 240.725 234.749 242.673C250.586 245.045 262.314 249.912 276.977 255.834C313.665 270.299 347.264 291.62 375.976 318.655C359.03 328.143 337.129 341.481 321.787 352.887C306.548 364.217 288.532 379.2 274.379 391.682C252.605 410.887 231.707 436.47 215.108 460.48C199.918 435.176 192.221 382.906 188.492 352.569C185.464 327.937 181.386 284.107 188.968 259.651C190.435 254.915 199.646 246.12 203.551 241.141Z"/><path fill="#565C61" d="M635.821 904.48C648.731 882.936 673.461 864.342 693.679 850.22C709.788 838.968 715.291 833.947 733.394 825.515C743.55 846.19 751.746 864.649 758.379 886.776C761.137 895.976 764.991 904.957 767.347 914.406C761.843 919.759 755.985 925.866 749.426 929.824C746.696 931.77 741.046 933.511 738.53 935.388C728.387 942.954 719.991 946.715 707.25 948.207C704.078 948.578 699.442 951.455 696.216 952.034C675.792 955.704 643.585 949.554 635.427 927.625C634.513 925.164 636.728 921.97 634.872 919.631C633.448 917.838 634.136 916.439 634.738 914.515C633.704 910.232 633.993 908.4 635.821 904.48Z"/><path fill="#6F7072" d="M635.821 904.48L637.41 905.21C638.063 909.7 638.462 911.671 634.738 914.515C633.704 910.232 633.993 908.4 635.821 904.48Z"/><path fill="#565C61" d="M271.49 844.232C274.522 843.939 277.231 844.127 280.329 844.017C282.138 843.952 284.893 841.017 285.972 841.12C291.553 841.649 290.835 841.309 295.111 838.569C296.385 837.752 302.382 839.968 304.359 837.355C307.25 835.567 312.246 835.034 315.528 834.398C322.564 833.089 329.583 831.445 336.726 830.79C344.414 830.085 352.287 830.955 359.979 830.697C373.522 830.244 387.429 832.705 395.072 845.187C398.297 850.453 400.435 856.482 398.819 862.774C390.398 891.063 362.496 907.561 337.971 920.446C337.434 920.335 336.897 920.224 336.36 920.114C325.481 925.452 312.815 927.428 300.787 927.399C296.74 927.389 295.029 926.784 291.218 928.512C291.476 928.561 287.559 927.752 288.299 927.768C277.314 927.535 265.63 927.295 255.038 923.611C257.243 913.428 258.732 902.522 260.761 892.195C264.068 876.148 267.645 860.159 271.49 844.232Z"/><path fill="#D0CDC5" d="M273.75 906.358C274.194 909.438 274.47 911.002 272.698 913.533C271.705 910.841 272.707 908.95 273.75 906.358Z"/><path fill="#13171B" d="M407.642 305.708C432.981 297.547 452.59 293.268 479.08 288.845C488.56 312.303 481.973 353.51 479.139 378.244C478.343 385.192 478.08 393.032 475.728 399.605C474.174 403.948 472.398 402.993 468.574 402.782C461.522 409.185 457.389 411.836 447.29 411.828C439.405 411.822 425.181 404.75 420.785 398.879C411.938 387.064 406.057 354.351 404.868 339.776C404.272 332.962 404.317 326.106 405.003 319.299C405.471 314.949 406.32 309.885 407.642 305.708Z"/><path fill="#565C61" d="M241.553 1001.66C249.765 997.317 257.421 995.71 266.729 995.951C291.491 996.591 304.518 997.357 310.291 1024L237.885 1024C238.34 1017.65 240.371 1008.01 241.553 1001.66Z"/><path fill="#565C61" d="M784.96 988.409C787.559 999.663 790.054 1012.47 791.135 1024L710.265 1024C712.845 1022.29 717.166 1020.88 719.984 1019.01C725.222 1015.43 729.668 1011.7 735.154 1008.42C747.513 1001.02 761.218 998.545 774.186 992.734C777.743 991.14 781.272 989.688 784.96 988.409Z"/><path fill="#FEFEFE" d="M610.699 411.207C630.889 409.953 652.21 415.818 667.898 428.537C718.093 469.232 713.866 554.234 643.837 569.231C636.667 570.767 630.333 571.499 623.119 572.301C587.884 577.079 534.853 550.764 532.758 511.106C530.004 458.988 555.726 415.492 610.699 411.207Z"/><path fill="#13171B" d="M634.355 425.165C645.961 423.962 657.613 426.976 667.181 433.656C713.063 465.103 702.561 542.276 642.62 552.857C612.861 557.41 586.554 531.282 582.191 502.932C579.33 483.858 584.04 464.421 595.315 448.772C605.201 435.322 617.961 427.669 634.355 425.165Z"/><path fill="#FEFEFE" d="M351.265 427.201C368.47 424.412 390.972 431.711 404.607 442.155C436.414 466.519 444.971 521.942 420.692 554.093C406.469 572.926 376.606 583.585 354.045 586.467C335.113 587.139 316.604 586.115 300.32 574.282C286.401 563.432 271.065 533.781 269.519 516.546C265.016 466.373 305.025 431.536 351.265 427.201Z"/><path fill="#13171B" d="M371.399 439.684C382.819 438.579 399.692 444.655 408.657 451.732C421.181 461.619 427.987 475.761 429.943 491.389C432.197 510.094 426.931 528.929 415.302 543.753C403.535 558.774 389.319 565.67 370.62 567.862C357.459 569.055 343.58 564.015 333.18 556.093C321.439 547.222 313.789 533.977 311.971 519.375C306.978 482.255 333.728 444.881 371.399 439.684Z"/><path fill="#13171B" d="M536.55 865.65C540.712 865.166 544.239 865.27 548.265 866.602C554.81 868.806 560.17 873.59 563.1 879.844C569.425 893.364 566.848 916.707 563.349 930.701C558.64 949.531 545.144 994.853 527.336 1003.3C517.67 1001.64 518.753 1005.79 507.475 1002.7C497.302 998.734 485.677 994.825 481.2 984.28C472.113 962.875 475.084 941.569 483.214 920.532C485.02 915.859 487.528 907.684 492.213 905.453C494.319 905.305 495.735 906.053 497.736 906.796C508.743 888.921 511.856 869.724 536.55 865.65Z"/><path fill="#565C61" d="M533.03 305.712C535.064 306.241 538.154 306.457 540.302 306.799C558.659 309.653 560.419 330.15 559.558 345.012C558.65 360.676 555.78 377.142 541.861 386.452C540.458 385.207 538.714 383.905 537.221 382.731C536.019 385 535.369 386.983 534.494 389.382C533.397 389.58 531.867 389.744 530.764 389.491C498.511 382.115 499.707 323.664 521.696 307.363C523.858 307.522 526.986 308.112 529.2 308.461C530.549 307.636 531.768 306.665 533.03 305.712Z"/><path fill="#D0CDC5" d="M522.443 367.386C525.437 369.862 525.853 373.467 525.94 377.092C524.021 375.507 523.005 369.903 522.443 367.386Z"/><path fill="#8E6C4F" d="M494.22 532.707C503.769 531.862 517.134 533.265 514.547 546.544C512.399 557.576 504.884 564.536 495.959 570.601C496.158 577.414 496.138 584.687 499.065 590.983C502.392 598.14 509.064 604.092 516.469 606.799C541.183 615.831 542.627 591.439 550.698 588.478C552.266 587.903 553.432 587.829 554.939 588.528C555.323 589.201 555.717 589.96 555.534 590.749C552.092 605.626 539.11 618.026 523.415 616.433C507.479 614.815 503.018 609.75 493.455 598.747C491.928 599.462 492.257 599.541 491.167 601.233L490.967 601.608C486.15 610.615 479.642 618.928 469.458 621.775C455.31 625.73 437.158 617.182 433.294 602.515C432.854 600.849 432.683 600.087 433.52 598.644C438.499 597.382 450.12 616.788 463.016 614.606C485.095 610.87 488.383 589.805 487.949 571.813C478.249 568.338 464.269 559.31 463.226 547.737C462.041 534.58 485.024 533.412 494.22 532.707Z"/><path fill="#13171B" d="M652.007 622.03C661.674 620.926 723.949 639.043 736.021 643.917C737.171 644.382 737.035 644.775 737.233 645.646C734.098 645.692 730.963 645.542 727.847 645.198C717.285 644.116 656.735 630.689 652.064 624.038C651.562 623.323 651.874 622.828 652.007 622.03Z"/><path fill="#13171B" d="M333.445 639.121C335.611 638.788 336.557 638.662 338.185 640.217L338.144 641.052C336.909 642.405 334.351 644.188 332.679 644.743C309.344 652.492 285.639 661.647 261.761 667.268L256.241 668.012C274.343 657.246 312.851 643.874 333.445 639.121Z"/><path fill="#13171B" d="M256.82 607.683C273.226 606.049 294.016 609.431 310.694 609.519C314.311 609.538 325.131 610.359 327.6 613.052L327.444 613.936C324.815 615.957 323.398 615.681 319.911 615.907C307.042 615.352 294.18 614.653 281.327 613.813C270.631 613.169 256.302 612.63 246.07 610.086C250.312 608.665 252.448 608.23 256.82 607.683Z"/><path fill="#13171B" d="M709.308 581.699C713.465 581.262 718.466 581.485 722.709 581.554C706.757 588.778 679.316 593.335 661.301 596.841C660.757 596.938 660.212 597.027 659.666 597.108C657.087 597.491 652.252 598.465 650.179 596.938L650.383 596.087C658.016 589.272 698.255 582.951 709.308 581.699Z"/><path fill="#D0CDC5" d="M1024 924.071L1024 1024L972.833 1024L846.299 1024C853.336 1015.02 867.359 1006.41 876.866 999.762C907.914 978.04 940.044 956.952 975.026 942.087C981.113 939.5 989.028 935.928 995.512 935.192C996.323 934.949 1002.52 931.831 1003.51 931.315C1010.84 927.503 1015.93 925.623 1024 924.071Z"/><path fill="#565C61" d="M1024 924.071L1024 1024L972.833 1024C975.466 1018.06 982.044 1014.4 987.343 1010.5C983.061 1011.61 971.787 1014.41 974.427 1005.37C976.67 997.688 985.785 991.463 991.851 986.927C994.518 984.933 999.802 983.251 1001.35 980.233L1001.05 979.508C997.915 978.537 985.862 982.851 980.969 983.705L980.186 983.837C979.19 983.086 976.165 980.707 975.839 979.785C972.669 970.835 995.443 958.53 1000.42 956.229C995.519 955.941 995.59 956.234 991.797 952.582C989.135 950.018 991.632 949.001 991.429 948.503C988.458 941.197 990.086 940.039 995.512 935.192C996.323 934.949 1002.52 931.831 1003.51 931.315C1010.84 927.503 1015.93 925.623 1024 924.071Z"/></svg>